{
	"asset":{
		"generator":"Khronos glTF Blender I/O v4.1.63",
		"version":"2.0"
	},
	"scene":0,
	"scenes":[
		{
			"name":"Scene",
			"nodes":[
				10,
				11
			]
		}
	],
	"nodes":[
		{
			"mesh":0,
			"name":"Base-1",
			"scale":[
				1.5439038276672363,
				1.5439038276672363,
				1.5439038276672363
			],
			"translation":[
				0.5470417737960815,
				0.9116066694259644,
				1.5680973529815674
			]
		},
		{
			"mesh":1,
			"name":"EndEffector-1",
			"rotation":[
				0,
				-0.712149441242218,
				0,
				0.7020278573036194
			],
			"translation":[
				0.000549524265807122,
				0.14577722549438477,
				-0.2869666516780853
			]
		},
		{
			"children":[
				1
			],
			"mesh":2,
			"name":"45-1",
			"rotation":[
				-0.3134760558605194,
				0.5299155116081238,
				0.21949829161167145,
				0.756797730922699
			],
			"translation":[
				0.45648109912872314,
				-0.024183079600334167,
				-0.0017596674151718616
			]
		},
		{
			"children":[
				2
			],
			"mesh":3,
			"name":"L-1",
			"rotation":[
				0,
				-0.7129024267196655,
				0,
				0.7012633085250854
			],
			"translation":[
				0,
				-0.5045671463012695,
				0
			]
		},
		{
			"mesh":4,
			"name":"Slider-big",
			"rotation":[
				0,
				-0.7071068286895752,
				0.7071068286895752,
				9.835190439844155e-09
			],
			"scale":[
				0.025174090638756752,
				0.025174088776111603,
				0.0251740962266922
			],
			"translation":[
				0,
				-0.2699989080429077,
				0
			]
		},
		{
			"mesh":5,
			"name":"Slider.001",
			"rotation":[
				0,
				-0.7071068286895752,
				0.7071068286895752,
				9.835188663487315e-09
			],
			"scale":[
				0.025483809411525726,
				0.025483807548880577,
				0.025483816862106323
			],
			"translation":[
				-0.1697271764278412,
				-0.13038283586502075,
				0.0005207288195379078
			]
		},
		{
			"mesh":6,
			"name":"Slider.002",
			"rotation":[
				0,
				-0.7071068286895752,
				0.7071068286895752,
				9.835188663487315e-09
			],
			"scale":[
				0.025395644828677177,
				0.025395642966032028,
				0.025395652279257774
			],
			"translation":[
				0.16998985409736633,
				-0.12999999523162842,
				0.0012753971386700869
			]
		},
		{
			"children":[
				3,
				4,
				5,
				6
			],
			"mesh":7,
			"name":"MainRot-1",
			"rotation":[
				0,
				-0.7071068286895752,
				0,
				0.7071067094802856
			],
			"scale":[
				1.5439046621322632,
				1.5439039468765259,
				1.5439046621322632
			],
			"translation":[
				-0.8233211040496826,
				1.390220046043396,
				1.5681099891662598
			]
		},
		{
			"mesh":8,
			"name":"Screw-1",
			"rotation":[
				-0.4239339828491211,
				-0.5659328699111938,
				0.4239339828491211,
				0.5659328103065491
			],
			"scale":[
				1.5439047813415527,
				1.5439047813415527,
				1.543904185295105
			],
			"translation":[
				2.090944290161133,
				1.1895078420639038,
				1.8305609226226807
			]
		},
		{
			"mesh":9,
			"name":"Screw-2",
			"rotation":[
				0.7030536532402039,
				-0.07560126483440399,
				-0.7030536532402039,
				0.07560126483440399
			],
			"scale":[
				1.5439040660858154,
				1.5439038276672363,
				1.5439038276672363
			],
			"translation":[
				0.6229647994041443,
				1.1894999742507935,
				1.3056755065917969
			]
		},
		{
			"children":[
				0,
				7,
				8,
				9
			],
			"name":"All",
			"scale":[
				1.973626971244812,
				1.973626971244812,
				1.973626971244812
			],
			"translation":[
				-1.7476052045822144,
				-0.6519894003868103,
				-3.0907480716705322
			]
		},
		{
			"name":"All.001",
			"scale":[
				1.973626971244812,
				1.973626971244812,
				1.973626971244812
			],
			"translation":[
				-1.2732599973678589,
				-2.814718246459961,
				-4.703802585601807
			]
		}
	],
	"materials":[
		{
			"name":"chromium plate",
			"pbrMetallicRoughness":{
				"baseColorFactor":[
					0.6392160058021545,
					0.6666669845581055,
					0.67843097448349,
					1
				],
				"roughnessFactor":0.05999999865889549
			}
		},
		{
			"name":"red high gloss plastic",
			"pbrMetallicRoughness":{
				"baseColorFactor":[
					0.6941180229187012,
					0.09803920239210129,
					0.09803920239210129,
					1
				],
				"metallicFactor":0,
				"roughnessFactor":0.17000000178813934
			}
		},
		{
			"name":"matte gold",
			"pbrMetallicRoughness":{
				"baseColorFactor":[
					1,
					0.8117650151252747,
					0.5019609928131104,
					1
				],
				"roughnessFactor":0.5
			}
		},
		{
			"name":"burnished nickel",
			"pbrMetallicRoughness":{
				"baseColorFactor":[
					1,
					0.9607840180397034,
					0.8901960253715515,
					1
				],
				"roughnessFactor":0.10000000149011612
			}
		},
		{
			"doubleSided":true,
			"name":"Material #25.006",
			"pbrMetallicRoughness":{
				"baseColorFactor":[
					0.2706163823604584,
					0.12007071077823639,
					0.0026243918109685183,
					1
				],
				"roughnessFactor":0.07999999821186066
			}
		},
		{
			"doubleSided":true,
			"name":"Material #25.003",
			"pbrMetallicRoughness":{
				"baseColorFactor":[
					0.5457215309143066,
					0.42869096994400024,
					0.05951136350631714,
					1
				],
				"roughnessFactor":0.07999999821186066
			}
		},
		{
			"doubleSided":true,
			"name":"Material #25.005",
			"pbrMetallicRoughness":{
				"baseColorFactor":[
					0.5457215309143066,
					0.42869096994400024,
					0.05951136350631714,
					1
				],
				"roughnessFactor":0.07999999821186066
			}
		},
		{
			"name":"polished silver",
			"pbrMetallicRoughness":{
				"baseColorFactor":[
					0.5176470279693604,
					0.5294119715690613,
					0.549019992351532,
					1
				],
				"roughnessFactor":0.07999999821186066
			}
		},
		{
			"name":"polished silver-1",
			"pbrMetallicRoughness":{
				"baseColorFactor":[
					0.5176470279693604,
					0.5294119715690613,
					0.549019992351532,
					1
				],
				"roughnessFactor":0.07999999821186066
			}
		}
	],
	"meshes":[
		{
			"name":"Mesh_0",
			"primitives":[
				{
					"attributes":{
						"POSITION":0,
						"NORMAL":1,
						"TEXCOORD_0":2
					},
					"indices":3,
					"material":0
				}
			]
		},
		{
			"name":"Mesh_4",
			"primitives":[
				{
					"attributes":{
						"POSITION":4,
						"NORMAL":5,
						"TEXCOORD_0":6
					},
					"indices":7,
					"material":1
				}
			]
		},
		{
			"name":"Mesh_2",
			"primitives":[
				{
					"attributes":{
						"POSITION":8,
						"NORMAL":9,
						"TEXCOORD_0":10
					},
					"indices":11,
					"material":2
				}
			]
		},
		{
			"name":"Mesh_5",
			"primitives":[
				{
					"attributes":{
						"POSITION":12,
						"NORMAL":13,
						"TEXCOORD_0":14
					},
					"indices":15,
					"material":3
				}
			]
		},
		{
			"name":"Slider-big.001",
			"primitives":[
				{
					"attributes":{
						"POSITION":16,
						"NORMAL":17,
						"TEXCOORD_0":18
					},
					"indices":19,
					"material":4
				}
			]
		},
		{
			"name":"Slider.001",
			"primitives":[
				{
					"attributes":{
						"POSITION":20,
						"NORMAL":21,
						"TEXCOORD_0":22
					},
					"indices":23,
					"material":5
				}
			]
		},
		{
			"name":"Slider.003",
			"primitives":[
				{
					"attributes":{
						"POSITION":24,
						"NORMAL":25,
						"TEXCOORD_0":26
					},
					"indices":23,
					"material":6
				}
			]
		},
		{
			"name":"Mesh_6",
			"primitives":[
				{
					"attributes":{
						"POSITION":27,
						"NORMAL":28,
						"TEXCOORD_0":29
					},
					"indices":30,
					"material":7
				}
			]
		},
		{
			"name":"Mesh_1",
			"primitives":[
				{
					"attributes":{
						"POSITION":31,
						"NORMAL":32,
						"TEXCOORD_0":33
					},
					"indices":34,
					"material":8
				}
			]
		},
		{
			"name":"Mesh_3",
			"primitives":[
				{
					"attributes":{
						"POSITION":35,
						"NORMAL":36,
						"TEXCOORD_0":37
					},
					"indices":38,
					"material":8
				}
			]
		}
	],
	"accessors":[
		{
			"bufferView":0,
			"componentType":5126,
			"count":837,
			"max":[
				1,
				0.21998412907123566,
				0.20994751155376434
			],
			"min":[
				-1,
				0,
				-0.20999999344348907
			],
			"type":"VEC3"
		},
		{
			"bufferView":1,
			"componentType":5126,
			"count":837,
			"type":"VEC3"
		},
		{
			"bufferView":2,
			"componentType":5126,
			"count":837,
			"type":"VEC2"
		},
		{
			"bufferView":3,
			"componentType":5123,
			"count":2364,
			"type":"SCALAR"
		},
		{
			"bufferView":4,
			"componentType":5126,
			"count":1207,
			"max":[
				0.016831444576382637,
				-0.009372937493026257,
				0.20750896632671356
			],
			"min":[
				-0.01810908317565918,
				-0.42598843574523926,
				-0.027843201532959938
			],
			"type":"VEC3"
		},
		{
			"bufferView":5,
			"componentType":5126,
			"count":1207,
			"type":"VEC3"
		},
		{
			"bufferView":6,
			"componentType":5126,
			"count":1207,
			"type":"VEC2"
		},
		{
			"bufferView":7,
			"componentType":5123,
			"count":4992,
			"type":"SCALAR"
		},
		{
			"bufferView":8,
			"componentType":5126,
			"count":893,
			"max":[
				0.018403835594654083,
				0.1764044165611267,
				0.04068312048912048
			],
			"min":[
				-0.011598107405006886,
				-0.010625652968883514,
				-0.3025580644607544
			],
			"type":"VEC3"
		},
		{
			"bufferView":9,
			"componentType":5126,
			"count":893,
			"type":"VEC3"
		},
		{
			"bufferView":10,
			"componentType":5126,
			"count":893,
			"type":"VEC2"
		},
		{
			"bufferView":11,
			"componentType":5123,
			"count":3744,
			"type":"SCALAR"
		},
		{
			"bufferView":12,
			"componentType":5126,
			"count":876,
			"max":[
				0.46487972140312195,
				0.399996817111969,
				0.03998788446187973
			],
			"min":[
				-0.029999999329447746,
				-0.019999999552965164,
				-0.03999999910593033
			],
			"type":"VEC3"
		},
		{
			"bufferView":13,
			"componentType":5126,
			"count":876,
			"type":"VEC3"
		},
		{
			"bufferView":14,
			"componentType":5126,
			"count":876,
			"type":"VEC2"
		},
		{
			"bufferView":15,
			"componentType":5123,
			"count":2994,
			"type":"SCALAR"
		},
		{
			"bufferView":16,
			"componentType":5126,
			"count":16250,
			"max":[
				8.267716407775879,
				2.952755928039551,
				0.787401556968689
			],
			"min":[
				-8.267716407775879,
				-2.952755928039551,
				-8.661417007446289
			],
			"type":"VEC3"
		},
		{
			"bufferView":17,
			"componentType":5126,
			"count":16250,
			"type":"VEC3"
		},
		{
			"bufferView":18,
			"componentType":5126,
			"count":16250,
			"type":"VEC2"
		},
		{
			"bufferView":19,
			"componentType":5123,
			"count":59064,
			"type":"SCALAR"
		},
		{
			"bufferView":20,
			"componentType":5126,
			"count":129624,
			"max":[
				1.900787353515625,
				3.16054368019104,
				1.9007189273834229
			],
			"min":[
				-1.9007760286331177,
				-3.149606227874756,
				-6.69291353225708
			],
			"type":"VEC3"
		},
		{
			"bufferView":21,
			"componentType":5126,
			"count":129624,
			"type":"VEC3"
		},
		{
			"bufferView":22,
			"componentType":5126,
			"count":129624,
			"type":"VEC2"
		},
		{
			"bufferView":23,
			"componentType":5125,
			"count":445764,
			"type":"SCALAR"
		},
		{
			"bufferView":24,
			"componentType":5126,
			"count":129624,
			"max":[
				1.900787353515625,
				3.16054368019104,
				1.9007189273834229
			],
			"min":[
				-1.9007760286331177,
				-3.149606227874756,
				-6.69291353225708
			],
			"type":"VEC3"
		},
		{
			"bufferView":25,
			"componentType":5126,
			"count":129624,
			"type":"VEC3"
		},
		{
			"bufferView":26,
			"componentType":5126,
			"count":129624,
			"type":"VEC2"
		},
		{
			"bufferView":27,
			"componentType":5126,
			"count":6308,
			"max":[
				0.3400000035762787,
				0.10998350381851196,
				0.07000122219324112
			],
			"min":[
				-0.3400000035762787,
				-0.3799999952316284,
				-0.07000000029802322
			],
			"type":"VEC3"
		},
		{
			"bufferView":28,
			"componentType":5126,
			"count":6308,
			"type":"VEC3"
		},
		{
			"bufferView":29,
			"componentType":5126,
			"count":6308,
			"type":"VEC2"
		},
		{
			"bufferView":30,
			"componentType":5123,
			"count":29328,
			"type":"SCALAR"
		},
		{
			"bufferView":31,
			"componentType":5126,
			"count":26586,
			"max":[
				0.09995726495981216,
				0.05001030117273331,
				2
			],
			"min":[
				-0.10000000149011612,
				-0.05000000074505806,
				-0.05000000074505806
			],
			"type":"VEC3"
		},
		{
			"bufferView":32,
			"componentType":5126,
			"count":26586,
			"type":"VEC3"
		},
		{
			"bufferView":33,
			"componentType":5126,
			"count":26586,
			"type":"VEC2"
		},
		{
			"bufferView":34,
			"componentType":5123,
			"count":90816,
			"type":"SCALAR"
		},
		{
			"bufferView":35,
			"componentType":5126,
			"count":26626,
			"max":[
				0.09998254477977753,
				0.04999955743551254,
				1.0491769313812256
			],
			"min":[
				-0.09997472167015076,
				-0.050010744482278824,
				-1.0008230209350586
			],
			"type":"VEC3"
		},
		{
			"bufferView":36,
			"componentType":5126,
			"count":26626,
			"type":"VEC3"
		},
		{
			"bufferView":37,
			"componentType":5126,
			"count":26626,
			"type":"VEC2"
		},
		{
			"bufferView":38,
			"componentType":5123,
			"count":90816,
			"type":"SCALAR"
		}
	],
	"bufferViews":[
		{
			"buffer":0,
			"byteLength":10044,
			"byteOffset":0,
			"target":34962
		},
		{
			"buffer":0,
			"byteLength":10044,
			"byteOffset":10044,
			"target":34962
		},
		{
			"buffer":0,
			"byteLength":6696,
			"byteOffset":20088,
			"target":34962
		},
		{
			"buffer":0,
			"byteLength":4728,
			"byteOffset":26784,
			"target":34963
		},
		{
			"buffer":0,
			"byteLength":14484,
			"byteOffset":31512,
			"target":34962
		},
		{
			"buffer":0,
			"byteLength":14484,
			"byteOffset":45996,
			"target":34962
		},
		{
			"buffer":0,
			"byteLength":9656,
			"byteOffset":60480,
			"target":34962
		},
		{
			"buffer":0,
			"byteLength":9984,
			"byteOffset":70136,
			"target":34963
		},
		{
			"buffer":0,
			"byteLength":10716,
			"byteOffset":80120,
			"target":34962
		},
		{
			"buffer":0,
			"byteLength":10716,
			"byteOffset":90836,
			"target":34962
		},
		{
			"buffer":0,
			"byteLength":7144,
			"byteOffset":101552,
			"target":34962
		},
		{
			"buffer":0,
			"byteLength":7488,
			"byteOffset":108696,
			"target":34963
		},
		{
			"buffer":0,
			"byteLength":10512,
			"byteOffset":116184,
			"target":34962
		},
		{
			"buffer":0,
			"byteLength":10512,
			"byteOffset":126696,
			"target":34962
		},
		{
			"buffer":0,
			"byteLength":7008,
			"byteOffset":137208,
			"target":34962
		},
		{
			"buffer":0,
			"byteLength":5988,
			"byteOffset":144216,
			"target":34963
		},
		{
			"buffer":0,
			"byteLength":195000,
			"byteOffset":150204,
			"target":34962
		},
		{
			"buffer":0,
			"byteLength":195000,
			"byteOffset":345204,
			"target":34962
		},
		{
			"buffer":0,
			"byteLength":130000,
			"byteOffset":540204,
			"target":34962
		},
		{
			"buffer":0,
			"byteLength":118128,
			"byteOffset":670204,
			"target":34963
		},
		{
			"buffer":0,
			"byteLength":1555488,
			"byteOffset":788332,
			"target":34962
		},
		{
			"buffer":0,
			"byteLength":1555488,
			"byteOffset":2343820,
			"target":34962
		},
		{
			"buffer":0,
			"byteLength":1036992,
			"byteOffset":3899308,
			"target":34962
		},
		{
			"buffer":0,
			"byteLength":1783056,
			"byteOffset":4936300,
			"target":34963
		},
		{
			"buffer":0,
			"byteLength":1555488,
			"byteOffset":6719356,
			"target":34962
		},
		{
			"buffer":0,
			"byteLength":1555488,
			"byteOffset":8274844,
			"target":34962
		},
		{
			"buffer":0,
			"byteLength":1036992,
			"byteOffset":9830332,
			"target":34962
		},
		{
			"buffer":0,
			"byteLength":75696,
			"byteOffset":10867324,
			"target":34962
		},
		{
			"buffer":0,
			"byteLength":75696,
			"byteOffset":10943020,
			"target":34962
		},
		{
			"buffer":0,
			"byteLength":50464,
			"byteOffset":11018716,
			"target":34962
		},
		{
			"buffer":0,
			"byteLength":58656,
			"byteOffset":11069180,
			"target":34963
		},
		{
			"buffer":0,
			"byteLength":319032,
			"byteOffset":11127836,
			"target":34962
		},
		{
			"buffer":0,
			"byteLength":319032,
			"byteOffset":11446868,
			"target":34962
		},
		{
			"buffer":0,
			"byteLength":212688,
			"byteOffset":11765900,
			"target":34962
		},
		{
			"buffer":0,
			"byteLength":181632,
			"byteOffset":11978588,
			"target":34963
		},
		{
			"buffer":0,
			"byteLength":319512,
			"byteOffset":12160220,
			"target":34962
		},
		{
			"buffer":0,
			"byteLength":319512,
			"byteOffset":12479732,
			"target":34962
		},
		{
			"buffer":0,
			"byteLength":213008,
			"byteOffset":12799244,
			"target":34962
		},
		{
			"buffer":0,
			"byteLength":181632,
			"byteOffset":13012252,
			"target":34963
		}
	],
	"buffers":[
		{
			"byteLength":13193884,
			"uri":"air_3.bin"
		}
	]
}
