{
	"asset":{
		"generator":"Khronos glTF Blender I/O v4.1.63",
		"version":"2.0"
	},
	"scene":0,
	"scenes":[
		{
			"name":"Scene",
			"nodes":[
				7,
				8,
				9,
				10,
				11
			]
		}
	],
	"nodes":[
		{
			"mesh":0,
			"name":"45-1",
			"rotation":[
				-0.36749809980392456,
				-0.2576739490032196,
				-0.10673210769891739,
				0.8872190117835999
			],
			"scale":[
				1.5439039468765259,
				1.5439033508300781,
				1.5439034700393677
			],
			"translation":[
				0.7634508013725281,
				0.372733473777771,
				1.372145175933838
			]
		},
		{
			"mesh":1,
			"name":"Base-1",
			"scale":[
				1.5439037084579468,
				1.5439037084579468,
				1.5439037084579468
			],
			"translation":[
				0.5470417737960815,
				0.9116066694259644,
				1.5680973529815674
			]
		},
		{
			"mesh":2,
			"name":"EndEffector-1",
			"rotation":[
				-0.3340030312538147,
				-0.8127269148826599,
				0.186784565448761,
				0.43935003876686096
			],
			"scale":[
				1.5439035892486572,
				1.5439033508300781,
				1.5439032316207886
			],
			"translation":[
				0.7479901909828186,
				0.28168949484825134,
				1.2545151710510254
			]
		},
		{
			"mesh":3,
			"name":"L-1",
			"rotation":[
				0,
				-0.9945249557495117,
				0,
				0.10449959337711334
			],
			"scale":[
				1.5439046621322632,
				1.5439037084579468,
				1.5439046621322632
			],
			"translation":[
				1.254534125328064,
				0.4986681044101715,
				1.568112850189209
			]
		},
		{
			"mesh":4,
			"name":"MainRot-1",
			"rotation":[
				0,
				-0.6293429136276245,
				0,
				0.777127742767334
			],
			"scale":[
				1.543904423713684,
				1.5439037084579468,
				1.543904423713684
			],
			"translation":[
				1.254534125328064,
				1.390215277671814,
				1.568112850189209
			]
		},
		{
			"mesh":5,
			"name":"Screw-1",
			"rotation":[
				-0.4239339530467987,
				-0.5659328699111938,
				0.4239339828491211,
				0.5659328103065491
			],
			"scale":[
				1.5439046621322632,
				1.5439046621322632,
				1.5439040660858154
			],
			"translation":[
				2.0909440517425537,
				1.1895078420639038,
				1.8305609226226807
			]
		},
		{
			"mesh":6,
			"name":"Screw-2",
			"rotation":[
				0.7030536532402039,
				-0.07560126483440399,
				-0.7030536532402039,
				0.07560126483440399
			],
			"scale":[
				1.5439040660858154,
				1.5439038276672363,
				1.5439037084579468
			],
			"translation":[
				0.6229647994041443,
				1.1894999742507935,
				1.3056755065917969
			]
		},
		{
			"children":[
				0,
				1,
				2,
				3,
				4,
				5,
				6
			],
			"name":"All",
			"scale":[
				1.973626971244812,
				1.973626971244812,
				1.973626971244812
			],
			"translation":[
				-1.5776052474975586,
				-0.6519894003868103,
				-3.0907480716705322
			]
		},
		{
			"mesh":7,
			"name":"Slider.001",
			"rotation":[
				0.5,
				0.5,
				-0.5,
				0.5000000596046448
			],
			"scale":[
				0.07765147089958191,
				0.07765147089958191,
				0.07765147089958191
			],
			"translation":[
				0.7918175458908081,
				1.694488763809204,
				-0.5130523443222046
			]
		},
		{
			"name":"All.001",
			"scale":[
				1.973626971244812,
				1.973626971244812,
				1.973626971244812
			],
			"translation":[
				-1.3532640933990479,
				-2.814718246459961,
				-4.703802585601807
			]
		},
		{
			"mesh":8,
			"name":"Slider.002",
			"rotation":[
				0.5,
				0.5,
				-0.5,
				0.5000000596046448
			],
			"scale":[
				0.07738282531499863,
				0.07738282531499863,
				0.07738282531499863
			],
			"translation":[
				1.0084378719329834,
				1.695655345916748,
				0.5220963954925537
			]
		},
		{
			"mesh":9,
			"name":"Slider-big",
			"rotation":[
				0.5,
				0.5,
				-0.5,
				0.5000000596046448
			],
			"scale":[
				0.07670772820711136,
				0.07670772820711136,
				0.07670772820711136
			],
			"translation":[
				0.8983768820762634,
				1.2690660953521729,
				0.0041217803955078125
			]
		}
	],
	"materials":[
		{
			"name":"matte gold",
			"pbrMetallicRoughness":{
				"baseColorFactor":[
					1,
					0.8117650151252747,
					0.5019609928131104,
					1
				],
				"roughnessFactor":0.5
			}
		},
		{
			"name":"chromium plate",
			"pbrMetallicRoughness":{
				"baseColorFactor":[
					0.6392160058021545,
					0.6666669845581055,
					0.67843097448349,
					1
				],
				"roughnessFactor":0.05999999865889549
			}
		},
		{
			"name":"red high gloss plastic",
			"pbrMetallicRoughness":{
				"baseColorFactor":[
					0.6941180229187012,
					0.09803920239210129,
					0.09803920239210129,
					1
				],
				"metallicFactor":0,
				"roughnessFactor":0.17000000178813934
			}
		},
		{
			"name":"burnished nickel",
			"normalTexture":{
				"index":0,
				"scale":0.30000001192092896
			},
			"pbrMetallicRoughness":{
				"baseColorFactor":[
					1,
					0.9607840180397034,
					0.8901960253715515,
					1
				],
				"roughnessFactor":0.10000000149011612
			}
		},
		{
			"name":"polished silver",
			"pbrMetallicRoughness":{
				"baseColorFactor":[
					0.5176470279693604,
					0.5294119715690613,
					0.549019992351532,
					1
				],
				"roughnessFactor":0.07999999821186066
			}
		},
		{
			"name":"polished silver-1",
			"pbrMetallicRoughness":{
				"baseColorFactor":[
					0.5176470279693604,
					0.5294119715690613,
					0.549019992351532,
					1
				],
				"roughnessFactor":0.07999999821186066
			}
		},
		{
			"doubleSided":true,
			"name":"Material #25.003",
			"pbrMetallicRoughness":{
				"baseColorFactor":[
					0.5457215309143066,
					0.42869096994400024,
					0.05951136350631714,
					1
				],
				"roughnessFactor":0.07999999821186066
			}
		},
		{
			"doubleSided":true,
			"name":"Material #25.005",
			"pbrMetallicRoughness":{
				"baseColorFactor":[
					0.5457215309143066,
					0.42869096994400024,
					0.05951136350631714,
					1
				],
				"roughnessFactor":0.07999999821186066
			}
		},
		{
			"doubleSided":true,
			"name":"Material #25.006",
			"pbrMetallicRoughness":{
				"baseColorFactor":[
					0.2706163823604584,
					0.12007071077823639,
					0.0026243918109685183,
					1
				],
				"roughnessFactor":0.07999999821186066
			}
		}
	],
	"meshes":[
		{
			"name":"Mesh_2",
			"primitives":[
				{
					"attributes":{
						"POSITION":0,
						"NORMAL":1,
						"TEXCOORD_0":2
					},
					"indices":3,
					"material":0
				}
			]
		},
		{
			"name":"Mesh_0",
			"primitives":[
				{
					"attributes":{
						"POSITION":4,
						"NORMAL":5,
						"TEXCOORD_0":6
					},
					"indices":7,
					"material":1
				}
			]
		},
		{
			"name":"Mesh_4",
			"primitives":[
				{
					"attributes":{
						"POSITION":8,
						"NORMAL":9,
						"TEXCOORD_0":10
					},
					"indices":11,
					"material":2
				}
			]
		},
		{
			"name":"Mesh_5",
			"primitives":[
				{
					"attributes":{
						"POSITION":12,
						"NORMAL":13,
						"TEXCOORD_0":14
					},
					"indices":15,
					"material":3
				}
			]
		},
		{
			"name":"Mesh_6",
			"primitives":[
				{
					"attributes":{
						"POSITION":16,
						"NORMAL":17,
						"TEXCOORD_0":18
					},
					"indices":19,
					"material":4
				}
			]
		},
		{
			"name":"Mesh_1",
			"primitives":[
				{
					"attributes":{
						"POSITION":20,
						"NORMAL":21,
						"TEXCOORD_0":22
					},
					"indices":23,
					"material":5
				}
			]
		},
		{
			"name":"Mesh_3",
			"primitives":[
				{
					"attributes":{
						"POSITION":24,
						"NORMAL":25,
						"TEXCOORD_0":26
					},
					"indices":27,
					"material":5
				}
			]
		},
		{
			"name":"Slider.001",
			"primitives":[
				{
					"attributes":{
						"POSITION":28,
						"NORMAL":29,
						"TEXCOORD_0":30
					},
					"indices":31,
					"material":6
				}
			]
		},
		{
			"name":"Slider.003",
			"primitives":[
				{
					"attributes":{
						"POSITION":32,
						"NORMAL":33,
						"TEXCOORD_0":34
					},
					"indices":31,
					"material":7
				}
			]
		},
		{
			"name":"Slider-big.001",
			"primitives":[
				{
					"attributes":{
						"POSITION":35,
						"NORMAL":36,
						"TEXCOORD_0":37
					},
					"indices":38,
					"material":8
				}
			]
		}
	],
	"textures":[
		{
			"sampler":0,
			"source":0
		}
	],
	"images":[
		{
			"mimeType":"image/png",
			"name":"Image_0",
			"uri":"Image_0.png"
		}
	],
	"accessors":[
		{
			"bufferView":0,
			"componentType":5126,
			"count":893,
			"max":[
				0.030001912266016006,
				0.03500211238861084,
				0.263241171836853
			],
			"min":[
				0,
				-0.15202796459197998,
				-0.07999999821186066
			],
			"type":"VEC3"
		},
		{
			"bufferView":1,
			"componentType":5126,
			"count":893,
			"type":"VEC3"
		},
		{
			"bufferView":2,
			"componentType":5126,
			"count":893,
			"type":"VEC2"
		},
		{
			"bufferView":3,
			"componentType":5123,
			"count":3744,
			"type":"SCALAR"
		},
		{
			"bufferView":4,
			"componentType":5126,
			"count":837,
			"max":[
				1,
				0.21998412907123566,
				0.20994751155376434
			],
			"min":[
				-1,
				0,
				-0.20999999344348907
			],
			"type":"VEC3"
		},
		{
			"bufferView":5,
			"componentType":5126,
			"count":837,
			"type":"VEC3"
		},
		{
			"bufferView":6,
			"componentType":5126,
			"count":837,
			"type":"VEC2"
		},
		{
			"bufferView":7,
			"componentType":5123,
			"count":2364,
			"type":"SCALAR"
		},
		{
			"bufferView":8,
			"componentType":5126,
			"count":1207,
			"max":[
				0.03494046628475189,
				-0.004999995231628418,
				0.14582721889019012
			],
			"min":[
				-6.938893903907228e-18,
				-0.42161548137664795,
				-0.08952505886554718
			],
			"type":"VEC3"
		},
		{
			"bufferView":9,
			"componentType":5126,
			"count":1207,
			"type":"VEC3"
		},
		{
			"bufferView":10,
			"componentType":5126,
			"count":1207,
			"type":"VEC2"
		},
		{
			"bufferView":11,
			"componentType":5123,
			"count":4992,
			"type":"SCALAR"
		},
		{
			"bufferView":12,
			"componentType":5126,
			"count":876,
			"max":[
				0.46487972140312195,
				0.399996817111969,
				0.03998788446187973
			],
			"min":[
				-0.029999999329447746,
				-0.019999999552965164,
				-0.03999999910593033
			],
			"type":"VEC3"
		},
		{
			"bufferView":13,
			"componentType":5126,
			"count":876,
			"type":"VEC3"
		},
		{
			"bufferView":14,
			"componentType":5126,
			"count":876,
			"type":"VEC2"
		},
		{
			"bufferView":15,
			"componentType":5123,
			"count":2994,
			"type":"SCALAR"
		},
		{
			"bufferView":16,
			"componentType":5126,
			"count":6308,
			"max":[
				0.3400000035762787,
				0.10998350381851196,
				0.07000122219324112
			],
			"min":[
				-0.3400000035762787,
				-0.3799999952316284,
				-0.07000000029802322
			],
			"type":"VEC3"
		},
		{
			"bufferView":17,
			"componentType":5126,
			"count":6308,
			"type":"VEC3"
		},
		{
			"bufferView":18,
			"componentType":5126,
			"count":6308,
			"type":"VEC2"
		},
		{
			"bufferView":19,
			"componentType":5123,
			"count":29328,
			"type":"SCALAR"
		},
		{
			"bufferView":20,
			"componentType":5126,
			"count":26586,
			"max":[
				0.09995726495981216,
				0.05001030117273331,
				2
			],
			"min":[
				-0.10000000149011612,
				-0.05000000074505806,
				-0.05000000074505806
			],
			"type":"VEC3"
		},
		{
			"bufferView":21,
			"componentType":5126,
			"count":26586,
			"type":"VEC3"
		},
		{
			"bufferView":22,
			"componentType":5126,
			"count":26586,
			"type":"VEC2"
		},
		{
			"bufferView":23,
			"componentType":5123,
			"count":90816,
			"type":"SCALAR"
		},
		{
			"bufferView":24,
			"componentType":5126,
			"count":26626,
			"max":[
				0.09998254477977753,
				0.04999955743551254,
				1.0491769313812256
			],
			"min":[
				-0.09997472167015076,
				-0.050010744482278824,
				-1.0008230209350586
			],
			"type":"VEC3"
		},
		{
			"bufferView":25,
			"componentType":5126,
			"count":26626,
			"type":"VEC3"
		},
		{
			"bufferView":26,
			"componentType":5126,
			"count":26626,
			"type":"VEC2"
		},
		{
			"bufferView":27,
			"componentType":5123,
			"count":90816,
			"type":"SCALAR"
		},
		{
			"bufferView":28,
			"componentType":5126,
			"count":126063,
			"max":[
				1.900787353515625,
				3.16054368019104,
				1.9007189273834229
			],
			"min":[
				-1.9007760286331177,
				-3.149606227874756,
				-6.69291353225708
			],
			"type":"VEC3"
		},
		{
			"bufferView":29,
			"componentType":5126,
			"count":126063,
			"type":"VEC3"
		},
		{
			"bufferView":30,
			"componentType":5126,
			"count":126063,
			"type":"VEC2"
		},
		{
			"bufferView":31,
			"componentType":5125,
			"count":445764,
			"type":"SCALAR"
		},
		{
			"bufferView":32,
			"componentType":5126,
			"count":126063,
			"max":[
				1.900787353515625,
				3.16054368019104,
				1.9007189273834229
			],
			"min":[
				-1.9007760286331177,
				-3.149606227874756,
				-6.69291353225708
			],
			"type":"VEC3"
		},
		{
			"bufferView":33,
			"componentType":5126,
			"count":126063,
			"type":"VEC3"
		},
		{
			"bufferView":34,
			"componentType":5126,
			"count":126063,
			"type":"VEC2"
		},
		{
			"bufferView":35,
			"componentType":5126,
			"count":15866,
			"max":[
				8.267716407775879,
				2.952755928039551,
				0.787401556968689
			],
			"min":[
				-8.267716407775879,
				-2.952755928039551,
				-8.661417007446289
			],
			"type":"VEC3"
		},
		{
			"bufferView":36,
			"componentType":5126,
			"count":15866,
			"type":"VEC3"
		},
		{
			"bufferView":37,
			"componentType":5126,
			"count":15866,
			"type":"VEC2"
		},
		{
			"bufferView":38,
			"componentType":5123,
			"count":59064,
			"type":"SCALAR"
		}
	],
	"bufferViews":[
		{
			"buffer":0,
			"byteLength":10716,
			"byteOffset":0,
			"target":34962
		},
		{
			"buffer":0,
			"byteLength":10716,
			"byteOffset":10716,
			"target":34962
		},
		{
			"buffer":0,
			"byteLength":7144,
			"byteOffset":21432,
			"target":34962
		},
		{
			"buffer":0,
			"byteLength":7488,
			"byteOffset":28576,
			"target":34963
		},
		{
			"buffer":0,
			"byteLength":10044,
			"byteOffset":36064,
			"target":34962
		},
		{
			"buffer":0,
			"byteLength":10044,
			"byteOffset":46108,
			"target":34962
		},
		{
			"buffer":0,
			"byteLength":6696,
			"byteOffset":56152,
			"target":34962
		},
		{
			"buffer":0,
			"byteLength":4728,
			"byteOffset":62848,
			"target":34963
		},
		{
			"buffer":0,
			"byteLength":14484,
			"byteOffset":67576,
			"target":34962
		},
		{
			"buffer":0,
			"byteLength":14484,
			"byteOffset":82060,
			"target":34962
		},
		{
			"buffer":0,
			"byteLength":9656,
			"byteOffset":96544,
			"target":34962
		},
		{
			"buffer":0,
			"byteLength":9984,
			"byteOffset":106200,
			"target":34963
		},
		{
			"buffer":0,
			"byteLength":10512,
			"byteOffset":116184,
			"target":34962
		},
		{
			"buffer":0,
			"byteLength":10512,
			"byteOffset":126696,
			"target":34962
		},
		{
			"buffer":0,
			"byteLength":7008,
			"byteOffset":137208,
			"target":34962
		},
		{
			"buffer":0,
			"byteLength":5988,
			"byteOffset":144216,
			"target":34963
		},
		{
			"buffer":0,
			"byteLength":75696,
			"byteOffset":150204,
			"target":34962
		},
		{
			"buffer":0,
			"byteLength":75696,
			"byteOffset":225900,
			"target":34962
		},
		{
			"buffer":0,
			"byteLength":50464,
			"byteOffset":301596,
			"target":34962
		},
		{
			"buffer":0,
			"byteLength":58656,
			"byteOffset":352060,
			"target":34963
		},
		{
			"buffer":0,
			"byteLength":319032,
			"byteOffset":410716,
			"target":34962
		},
		{
			"buffer":0,
			"byteLength":319032,
			"byteOffset":729748,
			"target":34962
		},
		{
			"buffer":0,
			"byteLength":212688,
			"byteOffset":1048780,
			"target":34962
		},
		{
			"buffer":0,
			"byteLength":181632,
			"byteOffset":1261468,
			"target":34963
		},
		{
			"buffer":0,
			"byteLength":319512,
			"byteOffset":1443100,
			"target":34962
		},
		{
			"buffer":0,
			"byteLength":319512,
			"byteOffset":1762612,
			"target":34962
		},
		{
			"buffer":0,
			"byteLength":213008,
			"byteOffset":2082124,
			"target":34962
		},
		{
			"buffer":0,
			"byteLength":181632,
			"byteOffset":2295132,
			"target":34963
		},
		{
			"buffer":0,
			"byteLength":1512756,
			"byteOffset":2476764,
			"target":34962
		},
		{
			"buffer":0,
			"byteLength":1512756,
			"byteOffset":3989520,
			"target":34962
		},
		{
			"buffer":0,
			"byteLength":1008504,
			"byteOffset":5502276,
			"target":34962
		},
		{
			"buffer":0,
			"byteLength":1783056,
			"byteOffset":6510780,
			"target":34963
		},
		{
			"buffer":0,
			"byteLength":1512756,
			"byteOffset":8293836,
			"target":34962
		},
		{
			"buffer":0,
			"byteLength":1512756,
			"byteOffset":9806592,
			"target":34962
		},
		{
			"buffer":0,
			"byteLength":1008504,
			"byteOffset":11319348,
			"target":34962
		},
		{
			"buffer":0,
			"byteLength":190392,
			"byteOffset":12327852,
			"target":34962
		},
		{
			"buffer":0,
			"byteLength":190392,
			"byteOffset":12518244,
			"target":34962
		},
		{
			"buffer":0,
			"byteLength":126928,
			"byteOffset":12708636,
			"target":34962
		},
		{
			"buffer":0,
			"byteLength":118128,
			"byteOffset":12835564,
			"target":34963
		}
	],
	"samplers":[
		{
			"magFilter":9729,
			"minFilter":9987
		}
	],
	"buffers":[
		{
			"byteLength":12953692,
			"uri":"final_manipulator.bin"
		}
	]
}
